<svg width="108" height="24" viewBox="0 0 108 24" fill="none" xmlns="http://www.w3.org/2000/svg">
<path d="M36.536 6.848V8.032H31.688V11.792H35.624V12.976H31.688V18H30.232V6.848H36.536ZM37.7505 13.584C37.7505 12.688 37.9318 11.904 38.2945 11.232C38.6572 10.5493 39.1532 10.0213 39.7825 9.648C40.4225 9.27467 41.1318 9.088 41.9105 9.088C42.6785 9.088 43.3452 9.25333 43.9105 9.584C44.4758 9.91467 44.8972 10.3307 45.1745 10.832V9.232H46.6465V18H45.1745V16.368C44.8865 16.88 44.4545 17.3067 43.8785 17.648C43.3132 17.9787 42.6518 18.144 41.8945 18.144C41.1158 18.144 40.4118 17.952 39.7825 17.568C39.1532 17.184 38.6572 16.6453 38.2945 15.952C37.9318 15.2587 37.7505 14.4693 37.7505 13.584ZM45.1745 13.6C45.1745 12.9387 45.0412 12.3627 44.7745 11.872C44.5078 11.3813 44.1452 11.008 43.6865 10.752C43.2385 10.4853 42.7425 10.352 42.1985 10.352C41.6545 10.352 41.1585 10.48 40.7105 10.736C40.2625 10.992 39.9052 11.3653 39.6385 11.856C39.3718 12.3467 39.2385 12.9227 39.2385 13.584C39.2385 14.256 39.3718 14.8427 39.6385 15.344C39.9052 15.8347 40.2625 16.2133 40.7105 16.48C41.1585 16.736 41.6545 16.864 42.1985 16.864C42.7425 16.864 43.2385 16.736 43.6865 16.48C44.1452 16.2133 44.5078 15.8347 44.7745 15.344C45.0412 14.8427 45.1745 14.2613 45.1745 13.6ZM48.563 13.6C48.563 12.6933 48.7443 11.904 49.107 11.232C49.4697 10.5493 49.971 10.0213 50.611 9.648C51.2617 9.27467 52.003 9.088 52.835 9.088C53.9123 9.088 54.7977 9.34933 55.491 9.872C56.195 10.3947 56.659 11.12 56.883 12.048H55.315C55.1657 11.5147 54.8723 11.0933 54.435 10.784C54.0083 10.4747 53.475 10.32 52.835 10.32C52.003 10.32 51.331 10.608 50.819 11.184C50.307 11.7493 50.051 12.5547 50.051 13.6C50.051 14.656 50.307 15.472 50.819 16.048C51.331 16.624 52.003 16.912 52.835 16.912C53.475 16.912 54.0083 16.7627 54.435 16.464C54.8617 16.1653 55.155 15.7387 55.315 15.184H56.883C56.6483 16.08 56.179 16.8 55.475 17.344C54.771 17.8773 53.891 18.144 52.835 18.144C52.003 18.144 51.2617 17.9573 50.611 17.584C49.971 17.2107 49.4697 16.6827 49.107 16C48.7443 15.3173 48.563 14.5173 48.563 13.6ZM66.8258 13.28C66.8258 13.5573 66.8098 13.8507 66.7778 14.16H59.7698C59.8231 15.024 60.1164 15.7013 60.6498 16.192C61.1938 16.672 61.8498 16.912 62.6178 16.912C63.2471 16.912 63.7698 16.768 64.1858 16.48C64.6124 16.1813 64.9111 15.7867 65.0818 15.296H66.6498C66.4151 16.1387 65.9458 16.8267 65.2418 17.36C64.5378 17.8827 63.6631 18.144 62.6178 18.144C61.7858 18.144 61.0391 17.9573 60.3778 17.584C59.7271 17.2107 59.2151 16.6827 58.8418 16C58.4684 15.3067 58.2818 14.5067 58.2818 13.6C58.2818 12.6933 58.4631 11.8987 58.8258 11.216C59.1884 10.5333 59.6951 10.0107 60.3458 9.648C61.0071 9.27467 61.7644 9.088 62.6178 9.088C63.4498 9.088 64.1858 9.26933 64.8258 9.632C65.4658 9.99467 65.9564 10.496 66.2978 11.136C66.6498 11.7653 66.8258 12.48 66.8258 13.28ZM65.3218 12.976C65.3218 12.4213 65.1991 11.9467 64.9538 11.552C64.7084 11.1467 64.3724 10.8427 63.9458 10.64C63.5298 10.4267 63.0658 10.32 62.5538 10.32C61.8178 10.32 61.1884 10.5547 60.6658 11.024C60.1538 11.4933 59.8604 12.144 59.7858 12.976H65.3218ZM70.2036 10.864C70.5023 10.3413 70.9396 9.91467 71.5156 9.584C72.0916 9.25333 72.7476 9.088 73.4836 9.088C74.273 9.088 74.9823 9.27467 75.6116 9.648C76.241 10.0213 76.737 10.5493 77.0996 11.232C77.4623 11.904 77.6436 12.688 77.6436 13.584C77.6436 14.4693 77.4623 15.2587 77.0996 15.952C76.737 16.6453 76.2356 17.184 75.5956 17.568C74.9663 17.952 74.2623 18.144 73.4836 18.144C72.7263 18.144 72.0596 17.9787 71.4836 17.648C70.9183 17.3173 70.4916 16.896 70.2036 16.384V18H68.7476V6.16H70.2036V10.864ZM76.1556 13.584C76.1556 12.9227 76.0223 12.3467 75.7556 11.856C75.489 11.3653 75.1263 10.992 74.6676 10.736C74.2196 10.48 73.7236 10.352 73.1796 10.352C72.6463 10.352 72.1503 10.4853 71.6916 10.752C71.2436 11.008 70.881 11.3867 70.6036 11.888C70.337 12.3787 70.2036 12.9493 70.2036 13.6C70.2036 14.2613 70.337 14.8427 70.6036 15.344C70.881 15.8347 71.2436 16.2133 71.6916 16.48C72.1503 16.736 72.6463 16.864 73.1796 16.864C73.7236 16.864 74.2196 16.736 74.6676 16.48C75.1263 16.2133 75.489 15.8347 75.7556 15.344C76.0223 14.8427 76.1556 14.256 76.1556 13.584ZM83.3841 18.144C82.5628 18.144 81.8161 17.9573 81.1441 17.584C80.4828 17.2107 79.9601 16.6827 79.5761 16C79.2028 15.3067 79.0161 14.5067 79.0161 13.6C79.0161 12.704 79.2081 11.9147 79.5921 11.232C79.9868 10.5387 80.5201 10.0107 81.1921 9.648C81.8641 9.27467 82.6161 9.088 83.4481 9.088C84.2801 9.088 85.0321 9.27467 85.7041 9.648C86.3761 10.0107 86.9041 10.5333 87.2881 11.216C87.6828 11.8987 87.8801 12.6933 87.8801 13.6C87.8801 14.5067 87.6775 15.3067 87.2721 16C86.8775 16.6827 86.3388 17.2107 85.6561 17.584C84.9735 17.9573 84.2161 18.144 83.3841 18.144ZM83.3841 16.864C83.9068 16.864 84.3975 16.7413 84.8561 16.496C85.3148 16.2507 85.6828 15.8827 85.9601 15.392C86.2481 14.9013 86.3921 14.304 86.3921 13.6C86.3921 12.896 86.2535 12.2987 85.9761 11.808C85.6988 11.3173 85.3361 10.9547 84.8881 10.72C84.4401 10.4747 83.9548 10.352 83.4321 10.352C82.8988 10.352 82.4081 10.4747 81.9601 10.72C81.5228 10.9547 81.1708 11.3173 80.9041 11.808C80.6375 12.2987 80.5041 12.896 80.5041 13.6C80.5041 14.3147 80.6321 14.9173 80.8881 15.408C81.1548 15.8987 81.5068 16.2667 81.9441 16.512C82.3815 16.7467 82.8615 16.864 83.3841 16.864ZM93.6185 18.144C92.7972 18.144 92.0505 17.9573 91.3785 17.584C90.7172 17.2107 90.1945 16.6827 89.8105 16C89.4372 15.3067 89.2505 14.5067 89.2505 13.6C89.2505 12.704 89.4425 11.9147 89.8265 11.232C90.2212 10.5387 90.7545 10.0107 91.4265 9.648C92.0985 9.27467 92.8505 9.088 93.6825 9.088C94.5145 9.088 95.2665 9.27467 95.9385 9.648C96.6105 10.0107 97.1385 10.5333 97.5225 11.216C97.9172 11.8987 98.1145 12.6933 98.1145 13.6C98.1145 14.5067 97.9118 15.3067 97.5065 16C97.1118 16.6827 96.5732 17.2107 95.8905 17.584C95.2078 17.9573 94.4505 18.144 93.6185 18.144ZM93.6185 16.864C94.1412 16.864 94.6318 16.7413 95.0905 16.496C95.5492 16.2507 95.9172 15.8827 96.1945 15.392C96.4825 14.9013 96.6265 14.304 96.6265 13.6C96.6265 12.896 96.4878 12.2987 96.2105 11.808C95.9332 11.3173 95.5705 10.9547 95.1225 10.72C94.6745 10.4747 94.1892 10.352 93.6665 10.352C93.1332 10.352 92.6425 10.4747 92.1945 10.72C91.7572 10.9547 91.4052 11.3173 91.1385 11.808C90.8718 12.2987 90.7385 12.896 90.7385 13.6C90.7385 14.3147 90.8665 14.9173 91.1225 15.408C91.3892 15.8987 91.7412 16.2667 92.1785 16.512C92.6158 16.7467 93.0958 16.864 93.6185 16.864ZM104.925 18L101.485 14.128V18H100.029V6.16H101.485V13.12L104.861 9.232H106.893L102.765 13.6L106.909 18H104.925Z" fill="#535353"/>
<circle cx="10" cy="12" r="10" fill="white"/>
<path d="M10.8978 18V12.5351H12.6748L12.9389 10.3955H10.8978V9.03259C10.8978 8.41516 11.0636 7.99243 11.9177 7.99243H13V6.08479C12.4734 6.02624 11.9441 5.99797 11.4145 6.00011C9.84383 6.00011 8.76542 6.99494 8.76542 8.82122V10.3915H7V12.5311H8.76928V18H10.8978Z" fill="#0B120B"/>
</svg>
