<svg width="113" height="24" viewBox="0 0 113 24" fill="none" xmlns="http://www.w3.org/2000/svg">
<path d="M31.688 6.848V18H30.232V6.848H31.688ZM38.4415 9.072C39.5082 9.072 40.3722 9.39733 41.0335 10.048C41.6948 10.688 42.0255 11.616 42.0255 12.832V18H40.5855V13.04C40.5855 12.1653 40.3668 11.4987 39.9295 11.04C39.4922 10.5707 38.8948 10.336 38.1375 10.336C37.3695 10.336 36.7562 10.576 36.2975 11.056C35.8495 11.536 35.6255 12.2347 35.6255 13.152V18H34.1695V9.232H35.6255V10.48C35.9135 10.032 36.3028 9.68533 36.7935 9.44C37.2948 9.19467 37.8442 9.072 38.4415 9.072ZM47.5079 18.144C46.8359 18.144 46.2332 18.032 45.6999 17.808C45.1665 17.5733 44.7452 17.2533 44.4359 16.848C44.1265 16.432 43.9559 15.9573 43.9239 15.424H45.4279C45.4705 15.8613 45.6732 16.2187 46.0359 16.496C46.4092 16.7733 46.8945 16.912 47.4919 16.912C48.0465 16.912 48.4839 16.7893 48.8039 16.544C49.1239 16.2987 49.2839 15.9893 49.2839 15.616C49.2839 15.232 49.1132 14.9493 48.7719 14.768C48.4305 14.576 47.9025 14.3893 47.1879 14.208C46.5372 14.0373 46.0039 13.8667 45.5879 13.696C45.1825 13.5147 44.8305 13.2533 44.5319 12.912C44.2439 12.56 44.0999 12.1013 44.0999 11.536C44.0999 11.088 44.2332 10.6773 44.4999 10.304C44.7665 9.93067 45.1452 9.63733 45.6359 9.424C46.1265 9.2 46.6865 9.088 47.3159 9.088C48.2865 9.088 49.0705 9.33333 49.6679 9.824C50.2652 10.3147 50.5852 10.9867 50.6279 11.84H49.1719C49.1399 11.3813 48.9532 11.0133 48.6119 10.736C48.2812 10.4587 47.8332 10.32 47.2679 10.32C46.7452 10.32 46.3292 10.432 46.0199 10.656C45.7105 10.88 45.5559 11.1733 45.5559 11.536C45.5559 11.824 45.6465 12.064 45.8279 12.256C46.0199 12.4373 46.2545 12.5867 46.5319 12.704C46.8199 12.8107 47.2145 12.9333 47.7159 13.072C48.3452 13.2427 48.8572 13.4133 49.2519 13.584C49.6465 13.744 49.9825 13.9893 50.2599 14.32C50.5479 14.6507 50.6972 15.0827 50.7079 15.616C50.7079 16.096 50.5745 16.528 50.3079 16.912C50.0412 17.296 49.6625 17.6 49.1719 17.824C48.6919 18.0373 48.1372 18.144 47.5079 18.144ZM54.5393 10.432V15.6C54.5393 16.0267 54.6299 16.3307 54.8113 16.512C54.9926 16.6827 55.3073 16.768 55.7552 16.768H56.8273V18H55.5153C54.7046 18 54.0966 17.8133 53.6913 17.44C53.2859 17.0667 53.0833 16.4533 53.0833 15.6V10.432H51.9473V9.232H53.0833V7.024H54.5393V9.232H56.8273V10.432H54.5393ZM58.0474 13.584C58.0474 12.688 58.2287 11.904 58.5914 11.232C58.954 10.5493 59.45 10.0213 60.0794 9.648C60.7194 9.27467 61.4287 9.088 62.2074 9.088C62.9754 9.088 63.642 9.25333 64.2074 9.584C64.7727 9.91467 65.194 10.3307 65.4714 10.832V9.232H66.9434V18H65.4714V16.368C65.1834 16.88 64.7514 17.3067 64.1754 17.648C63.61 17.9787 62.9487 18.144 62.1914 18.144C61.4127 18.144 60.7087 17.952 60.0794 17.568C59.45 17.184 58.954 16.6453 58.5914 15.952C58.2287 15.2587 58.0474 14.4693 58.0474 13.584ZM65.4714 13.6C65.4714 12.9387 65.338 12.3627 65.0714 11.872C64.8047 11.3813 64.442 11.008 63.9834 10.752C63.5354 10.4853 63.0394 10.352 62.4954 10.352C61.9514 10.352 61.4554 10.48 61.0074 10.736C60.5594 10.992 60.202 11.3653 59.9354 11.856C59.6687 12.3467 59.5354 12.9227 59.5354 13.584C59.5354 14.256 59.6687 14.8427 59.9354 15.344C60.202 15.8347 60.5594 16.2133 61.0074 16.48C61.4554 16.736 61.9514 16.864 62.4954 16.864C63.0394 16.864 63.5354 16.736 63.9834 16.48C64.442 16.2133 64.8047 15.8347 65.0714 15.344C65.338 14.8427 65.4714 14.2613 65.4714 13.6ZM73.0199 9.088C73.7772 9.088 74.4385 9.25333 75.0039 9.584C75.5799 9.91467 76.0065 10.3307 76.2839 10.832V9.232H77.7559V18.192C77.7559 18.992 77.5852 19.7013 77.2439 20.32C76.9025 20.9493 76.4119 21.44 75.7719 21.792C75.1425 22.144 74.4065 22.32 73.5639 22.32C72.4119 22.32 71.4519 22.048 70.6839 21.504C69.9159 20.96 69.4625 20.2187 69.3239 19.28H70.7639C70.9239 19.8133 71.2545 20.24 71.7559 20.56C72.2572 20.8907 72.8599 21.056 73.5639 21.056C74.3639 21.056 75.0145 20.8053 75.5159 20.304C76.0279 19.8027 76.2839 19.0987 76.2839 18.192V16.352C75.9959 16.864 75.5692 17.2907 75.0039 17.632C74.4385 17.9733 73.7772 18.144 73.0199 18.144C72.2412 18.144 71.5319 17.952 70.8919 17.568C70.2625 17.184 69.7665 16.6453 69.4039 15.952C69.0412 15.2587 68.8599 14.4693 68.8599 13.584C68.8599 12.688 69.0412 11.904 69.4039 11.232C69.7665 10.5493 70.2625 10.0213 70.8919 9.648C71.5319 9.27467 72.2412 9.088 73.0199 9.088ZM76.2839 13.6C76.2839 12.9387 76.1505 12.3627 75.8839 11.872C75.6172 11.3813 75.2545 11.008 74.7959 10.752C74.3479 10.4853 73.8519 10.352 73.3079 10.352C72.7639 10.352 72.2679 10.48 71.8199 10.736C71.3719 10.992 71.0145 11.3653 70.7479 11.856C70.4812 12.3467 70.3479 12.9227 70.3479 13.584C70.3479 14.256 70.4812 14.8427 70.7479 15.344C71.0145 15.8347 71.3719 16.2133 71.8199 16.48C72.2679 16.736 72.7639 16.864 73.3079 16.864C73.8519 16.864 74.3479 16.736 74.7959 16.48C75.2545 16.2133 75.6172 15.8347 75.8839 15.344C76.1505 14.8427 76.2839 14.2613 76.2839 13.6ZM81.6724 10.656C81.9284 10.1547 82.291 9.76533 82.7604 9.488C83.2404 9.21067 83.8217 9.072 84.5044 9.072V10.576H84.1204C82.4884 10.576 81.6724 11.4613 81.6724 13.232V18H80.2164V9.232H81.6724V10.656ZM85.6411 13.584C85.6411 12.688 85.8225 11.904 86.1851 11.232C86.5478 10.5493 87.0438 10.0213 87.6731 9.648C88.3131 9.27467 89.0225 9.088 89.8011 9.088C90.5691 9.088 91.2358 9.25333 91.8011 9.584C92.3665 9.91467 92.7878 10.3307 93.0651 10.832V9.232H94.5371V18H93.0651V16.368C92.7771 16.88 92.3451 17.3067 91.7691 17.648C91.2038 17.9787 90.5425 18.144 89.7851 18.144C89.0065 18.144 88.3025 17.952 87.6731 17.568C87.0438 17.184 86.5478 16.6453 86.1851 15.952C85.8225 15.2587 85.6411 14.4693 85.6411 13.584ZM93.0651 13.6C93.0651 12.9387 92.9318 12.3627 92.6651 11.872C92.3985 11.3813 92.0358 11.008 91.5771 10.752C91.1291 10.4853 90.6331 10.352 90.0891 10.352C89.5451 10.352 89.0491 10.48 88.6011 10.736C88.1531 10.992 87.7958 11.3653 87.5291 11.856C87.2625 12.3467 87.1291 12.9227 87.1291 13.584C87.1291 14.256 87.2625 14.8427 87.5291 15.344C87.7958 15.8347 88.1531 16.2133 88.6011 16.48C89.0491 16.736 89.5451 16.864 90.0891 16.864C90.6331 16.864 91.1291 16.736 91.5771 16.48C92.0358 16.2133 92.3985 15.8347 92.6651 15.344C92.9318 14.8427 93.0651 14.2613 93.0651 13.6ZM107.542 9.072C108.224 9.072 108.832 9.216 109.366 9.504C109.899 9.78133 110.32 10.2027 110.63 10.768C110.939 11.3333 111.094 12.0213 111.094 12.832V18H109.654V13.04C109.654 12.1653 109.435 11.4987 108.998 11.04C108.571 10.5707 107.99 10.336 107.254 10.336C106.496 10.336 105.894 10.5813 105.446 11.072C104.998 11.552 104.774 12.2507 104.774 13.168V18H103.334V13.04C103.334 12.1653 103.115 11.4987 102.678 11.04C102.251 10.5707 101.67 10.336 100.934 10.336C100.176 10.336 99.5736 10.5813 99.1256 11.072C98.6776 11.552 98.4536 12.2507 98.4536 13.168V18H96.9976V9.232H98.4536V10.496C98.7416 10.0373 99.1256 9.68533 99.6056 9.44C100.096 9.19467 100.635 9.072 101.222 9.072C101.958 9.072 102.608 9.23733 103.174 9.568C103.739 9.89867 104.16 10.384 104.438 11.024C104.683 10.4053 105.088 9.92533 105.654 9.584C106.219 9.24267 106.848 9.072 107.542 9.072Z" fill="#535353"/>
<circle cx="10" cy="12" r="10" fill="white"/>
<path d="M13.2029 9.51703C13.6006 9.51703 13.9229 9.19467 13.9229 8.79703C13.9229 8.39938 13.6006 8.07703 13.2029 8.07703C12.8053 8.07703 12.4829 8.39938 12.4829 8.79703C12.4829 9.19467 12.8053 9.51703 13.2029 9.51703Z" fill="#0B120B"/>
<path d="M9.99995 8.91901C9.39058 8.91901 8.7949 9.0997 8.28823 9.43825C7.78157 9.77679 7.38667 10.258 7.15347 10.821C6.92028 11.3839 6.85927 12.0034 6.97815 12.6011C7.09703 13.1987 7.39047 13.7477 7.82135 14.1786C8.25224 14.6095 8.80122 14.9029 9.39887 15.0218C9.99653 15.1407 10.616 15.0797 11.179 14.8465C11.742 14.6133 12.2232 14.2184 12.5617 13.7117C12.9002 13.2051 13.0809 12.6094 13.0809 12C13.0809 11.1829 12.7563 10.3992 12.1785 9.82141C11.6007 9.24361 10.8171 8.91901 9.99995 8.91901ZM9.99995 14C9.60438 14 9.2177 13.8827 8.88881 13.6629C8.55991 13.4432 8.30356 13.1308 8.15219 12.7654C8.00081 12.3999 7.96121 11.9978 8.03838 11.6098C8.11555 11.2219 8.30603 10.8655 8.58573 10.5858C8.86544 10.3061 9.2218 10.1156 9.60977 10.0384C9.99773 9.96126 10.3999 10.0009 10.7653 10.1522C11.1308 10.3036 11.4431 10.56 11.6629 10.8889C11.8826 11.2178 11.9999 11.6044 11.9999 12C11.9999 12.5304 11.7892 13.0391 11.4142 13.4142C11.0391 13.7893 10.5304 14 9.99995 14Z" fill="#0B120B"/>
<path d="M10 7.081C11.602 7.081 11.792 7.087 12.4245 7.116C12.8049 7.12052 13.1817 7.19037 13.5385 7.3225C13.7973 7.42235 14.0324 7.57527 14.2286 7.77144C14.4247 7.96761 14.5777 8.20267 14.6775 8.4615C14.8096 8.81826 14.8795 9.19508 14.884 9.5755C14.913 10.208 14.919 10.398 14.919 12.0005C14.919 13.603 14.913 13.792 14.884 14.4245C14.8795 14.8049 14.8096 15.1817 14.6775 15.5385C14.5777 15.7973 14.4247 16.0324 14.2286 16.2286C14.0324 16.4247 13.7973 16.5777 13.5385 16.6775C13.1817 16.8096 12.8049 16.8795 12.4245 16.884C11.792 16.913 11.602 16.919 10 16.919C8.398 16.919 8.208 16.913 7.5755 16.884C7.19508 16.8795 6.81826 16.8096 6.4615 16.6775C6.20267 16.5777 5.96761 16.4247 5.77144 16.2286C5.57527 16.0324 5.42235 15.7973 5.3225 15.5385C5.19037 15.1817 5.12052 14.8049 5.116 14.4245C5.087 13.792 5.081 13.602 5.081 12C5.081 10.398 5.087 10.208 5.116 9.5755C5.12052 9.19508 5.19037 8.81826 5.3225 8.4615C5.42235 8.20267 5.57527 7.96761 5.77144 7.77144C5.96761 7.57527 6.20267 7.42235 6.4615 7.3225C6.81826 7.19037 7.19508 7.12052 7.5755 7.116C8.208 7.087 8.398 7.081 10 7.081ZM10 6C8.3705 6 8.166 6.007 7.526 6.036C7.02839 6.04605 6.53608 6.14038 6.07 6.315C5.67136 6.46915 5.30933 6.70489 5.00711 7.00711C4.70489 7.30933 4.46915 7.67136 4.315 8.07C4.14033 8.53624 4.04599 9.02872 4.036 9.5265C4.007 10.1665 4 10.37 4 12C4 13.63 4.007 13.834 4.036 14.474C4.04605 14.9716 4.14038 15.4639 4.315 15.93C4.46915 16.3286 4.70489 16.6907 5.00711 16.9929C5.30933 17.2951 5.67136 17.5309 6.07 17.685C6.53624 17.8597 7.02872 17.954 7.5265 17.964C8.1665 17.993 8.3705 18 10 18C11.6295 18 11.834 17.993 12.474 17.964C12.9718 17.954 13.4643 17.8597 13.9305 17.685C14.3291 17.5309 14.6912 17.2951 14.9934 16.9929C15.2956 16.6907 15.5314 16.3286 15.6855 15.93C15.86 15.4637 15.9542 14.9713 15.964 14.4735C15.993 13.8335 16 13.63 16 12C16 10.37 15.993 10.166 15.964 9.526C15.954 9.02839 15.8596 8.53608 15.685 8.07C15.5309 7.67136 15.2951 7.30933 14.9929 7.00711C14.6907 6.70489 14.3286 6.46915 13.93 6.315C13.4637 6.1405 12.9713 6.04633 12.4735 6.0365C11.8335 6.0065 11.63 6 10 6Z" fill="#0B120B"/>
</svg>
