<svg width="94" height="24" viewBox="0 0 94 24" fill="none" xmlns="http://www.w3.org/2000/svg">
<path d="M31.688 16.816H35.592V18H30.232V6.848H31.688V16.816ZM37.8903 7.808C37.6129 7.808 37.3783 7.712 37.1863 7.52C36.9943 7.328 36.8983 7.09333 36.8983 6.816C36.8983 6.53867 36.9943 6.304 37.1863 6.112C37.3783 5.92 37.6129 5.824 37.8903 5.824C38.1569 5.824 38.3809 5.92 38.5623 6.112C38.7543 6.304 38.8503 6.53867 38.8503 6.816C38.8503 7.09333 38.7543 7.328 38.5623 7.52C38.3809 7.712 38.1569 7.808 37.8903 7.808ZM38.5943 9.232V18H37.1383V9.232H38.5943ZM45.3478 9.072C46.4144 9.072 47.2784 9.39733 47.9398 10.048C48.6011 10.688 48.9318 11.616 48.9318 12.832V18H47.4918V13.04C47.4918 12.1653 47.2731 11.4987 46.8358 11.04C46.3984 10.5707 45.8011 10.336 45.0438 10.336C44.2758 10.336 43.6624 10.576 43.2038 11.056C42.7558 11.536 42.5318 12.2347 42.5318 13.152V18H41.0758V9.232H42.5318V10.48C42.8198 10.032 43.2091 9.68533 43.6998 9.44C44.2011 9.19467 44.7504 9.072 45.3478 9.072ZM56.2061 18L52.7661 14.128V18H51.3101V6.16H52.7661V13.12L56.1421 9.232H58.1741L54.0461 13.6L58.1901 18H56.2061ZM67.5445 13.28C67.5445 13.5573 67.5285 13.8507 67.4965 14.16H60.4885C60.5418 15.024 60.8352 15.7013 61.3685 16.192C61.9125 16.672 62.5685 16.912 63.3365 16.912C63.9658 16.912 64.4885 16.768 64.9045 16.48C65.3312 16.1813 65.6298 15.7867 65.8005 15.296H67.3685C67.1338 16.1387 66.6645 16.8267 65.9605 17.36C65.2565 17.8827 64.3818 18.144 63.3365 18.144C62.5045 18.144 61.7578 17.9573 61.0965 17.584C60.4458 17.2107 59.9338 16.6827 59.5605 16C59.1872 15.3067 59.0005 14.5067 59.0005 13.6C59.0005 12.6933 59.1818 11.8987 59.5445 11.216C59.9072 10.5333 60.4138 10.0107 61.0645 9.648C61.7258 9.27467 62.4832 9.088 63.3365 9.088C64.1685 9.088 64.9045 9.26933 65.5445 9.632C66.1845 9.99467 66.6752 10.496 67.0165 11.136C67.3685 11.7653 67.5445 12.48 67.5445 13.28ZM66.0405 12.976C66.0405 12.4213 65.9178 11.9467 65.6725 11.552C65.4272 11.1467 65.0912 10.8427 64.6645 10.64C64.2485 10.4267 63.7845 10.32 63.2725 10.32C62.5365 10.32 61.9072 10.5547 61.3845 11.024C60.8725 11.4933 60.5792 12.144 60.5045 12.976H66.0405ZM68.9224 13.584C68.9224 12.688 69.1037 11.904 69.4664 11.232C69.829 10.5493 70.325 10.0213 70.9544 9.648C71.5944 9.27467 72.309 9.088 73.0984 9.088C73.781 9.088 74.4157 9.248 75.0024 9.568C75.589 9.87733 76.037 10.288 76.3464 10.8V6.16H77.8184V18H76.3464V16.352C76.0584 16.8747 75.6317 17.3067 75.0664 17.648C74.501 17.9787 73.8397 18.144 73.0824 18.144C72.3037 18.144 71.5944 17.952 70.9544 17.568C70.325 17.184 69.829 16.6453 69.4664 15.952C69.1037 15.2587 68.9224 14.4693 68.9224 13.584ZM76.3464 13.6C76.3464 12.9387 76.213 12.3627 75.9464 11.872C75.6797 11.3813 75.317 11.008 74.8584 10.752C74.4104 10.4853 73.9144 10.352 73.3704 10.352C72.8264 10.352 72.3304 10.48 71.8824 10.736C71.4344 10.992 71.077 11.3653 70.8104 11.856C70.5437 12.3467 70.4104 12.9227 70.4104 13.584C70.4104 14.256 70.5437 14.8427 70.8104 15.344C71.077 15.8347 71.4344 16.2133 71.8824 16.48C72.3304 16.736 72.8264 16.864 73.3704 16.864C73.9144 16.864 74.4104 16.736 74.8584 16.48C75.317 16.2133 75.6797 15.8347 75.9464 15.344C76.213 14.8427 76.3464 14.2613 76.3464 13.6ZM81.0309 7.808C80.7535 7.808 80.5189 7.712 80.3269 7.52C80.1349 7.328 80.0389 7.09333 80.0389 6.816C80.0389 6.53867 80.1349 6.304 80.3269 6.112C80.5189 5.92 80.7535 5.824 81.0309 5.824C81.2975 5.824 81.5215 5.92 81.7029 6.112C81.8949 6.304 81.9909 6.53867 81.9909 6.816C81.9909 7.09333 81.8949 7.328 81.7029 7.52C81.5215 7.712 81.2975 7.808 81.0309 7.808ZM81.7349 9.232V18H80.2789V9.232H81.7349ZM88.4884 9.072C89.555 9.072 90.419 9.39733 91.0804 10.048C91.7417 10.688 92.0724 11.616 92.0724 12.832V18H90.6324V13.04C90.6324 12.1653 90.4137 11.4987 89.9764 11.04C89.539 10.5707 88.9417 10.336 88.1844 10.336C87.4164 10.336 86.803 10.576 86.3444 11.056C85.8964 11.536 85.6724 12.2347 85.6724 13.152V18H84.2164V9.232H85.6724V10.48C85.9604 10.032 86.3497 9.68533 86.8404 9.44C87.3417 9.19467 87.891 9.072 88.4884 9.072Z" fill="#535353"/>
<circle cx="10" cy="12" r="10" fill="white"/>
<path d="M6.22487 9.44973C6.90134 9.44973 7.44973 8.90134 7.44973 8.22487C7.44973 7.54839 6.90134 7 6.22487 7C5.54839 7 5 7.54839 5 8.22487C5 8.90134 5.54839 9.44973 6.22487 9.44973Z" fill="#0B120B"/>
<path d="M8.60648 10.3779V17.1734H10.7164V13.8129C10.7164 12.9262 10.8832 12.0674 11.9827 12.0674C13.0671 12.0674 13.0805 13.0812 13.0805 13.8689V17.174H15.1915V13.4473C15.1915 11.6168 14.7974 10.21 12.6578 10.21C11.6306 10.21 10.942 10.7737 10.6604 11.3072H10.6319V10.3779H8.60648ZM5.16812 10.3779H7.28141V17.1734H5.16812V10.3779Z" fill="#0B120B"/>
</svg>
