<svg width="83" height="24" viewBox="0 0 83 24" fill="none" xmlns="http://www.w3.org/2000/svg">
<path d="M37.096 6.848V8.032H34.056V18H32.6V8.032H29.544V6.848H37.096ZM50.5683 9.232L47.8323 18H46.3283L44.2163 11.04L42.1043 18H40.6003L37.8483 9.232H39.3363L41.3523 16.592L43.5283 9.232H45.0163L47.1443 16.608L49.1283 9.232H50.5683ZM52.7653 7.808C52.4879 7.808 52.2533 7.712 52.0613 7.52C51.8693 7.328 51.7733 7.09333 51.7733 6.816C51.7733 6.53867 51.8693 6.304 52.0613 6.112C52.2533 5.92 52.4879 5.824 52.7653 5.824C53.0319 5.824 53.2559 5.92 53.4373 6.112C53.6293 6.304 53.7253 6.53867 53.7253 6.816C53.7253 7.09333 53.6293 7.328 53.4373 7.52C53.2559 7.712 53.0319 7.808 52.7653 7.808ZM53.4693 9.232V18H52.0133V9.232H53.4693ZM57.7268 10.432V15.6C57.7268 16.0267 57.8174 16.3307 57.9988 16.512C58.1801 16.6827 58.4948 16.768 58.9427 16.768H60.0148V18H58.7028C57.8921 18 57.2841 17.8133 56.8788 17.44C56.4734 17.0667 56.2708 16.4533 56.2708 15.6V10.432H55.1348V9.232H56.2708V7.024H57.7268V9.232H60.0148V10.432H57.7268ZM63.5549 10.432V15.6C63.5549 16.0267 63.6455 16.3307 63.8269 16.512C64.0082 16.6827 64.3229 16.768 64.7709 16.768H65.8429V18H64.5309C63.7202 18 63.1122 17.8133 62.7069 17.44C62.3015 17.0667 62.0989 16.4533 62.0989 15.6V10.432H60.9629V9.232H62.0989V7.024H63.5549V9.232H65.8429V10.432H63.5549ZM75.607 13.28C75.607 13.5573 75.591 13.8507 75.559 14.16H68.551C68.6043 15.024 68.8977 15.7013 69.431 16.192C69.975 16.672 70.631 16.912 71.399 16.912C72.0283 16.912 72.551 16.768 72.967 16.48C73.3937 16.1813 73.6923 15.7867 73.863 15.296H75.431C75.1963 16.1387 74.727 16.8267 74.023 17.36C73.319 17.8827 72.4443 18.144 71.399 18.144C70.567 18.144 69.8203 17.9573 69.159 17.584C68.5083 17.2107 67.9963 16.6827 67.623 16C67.2497 15.3067 67.063 14.5067 67.063 13.6C67.063 12.6933 67.2443 11.8987 67.607 11.216C67.9697 10.5333 68.4763 10.0107 69.127 9.648C69.7883 9.27467 70.5457 9.088 71.399 9.088C72.231 9.088 72.967 9.26933 73.607 9.632C74.247 9.99467 74.7377 10.496 75.079 11.136C75.431 11.7653 75.607 12.48 75.607 13.28ZM74.103 12.976C74.103 12.4213 73.9803 11.9467 73.735 11.552C73.4897 11.1467 73.1537 10.8427 72.727 10.64C72.311 10.4267 71.847 10.32 71.335 10.32C70.599 10.32 69.9697 10.5547 69.447 11.024C68.935 11.4933 68.6417 12.144 68.567 12.976H74.103ZM78.9849 10.656C79.2409 10.1547 79.6035 9.76533 80.0729 9.488C80.5529 9.21067 81.1342 9.072 81.8169 9.072V10.576H81.4329C79.8009 10.576 78.9849 11.4613 78.9849 13.232V18H77.5289V9.232H78.9849V10.656Z" fill="#535353"/>
<circle cx="10" cy="12" r="10" fill="white"/>
<path d="M16 8.06909C15.5955 8.24483 15.1553 8.37131 14.7018 8.42057C15.1726 8.1389 15.5251 7.69391 15.6933 7.16909C15.2516 7.43375 14.7676 7.61933 14.2629 7.71761C14.052 7.49051 13.7969 7.3096 13.5135 7.18614C13.2302 7.06268 12.9246 6.99932 12.6158 7.00001C11.3665 7.00001 10.3619 8.01983 10.3619 9.27131C10.3619 9.44705 10.383 9.62279 10.4174 9.79187C8.54681 9.69335 6.8785 8.79335 5.76938 7.41539C5.56729 7.76303 5.46138 8.15886 5.46268 8.56169C5.46268 9.34986 5.86059 10.0448 6.46737 10.4536C6.10979 10.4394 5.76058 10.3404 5.44814 10.1646V10.1926C5.44814 11.2963 6.22281 12.2109 7.25526 12.4213C7.0614 12.472 6.86199 12.498 6.6617 12.4985C6.51496 12.4985 6.37616 12.4839 6.23603 12.4639C6.52157 13.3639 7.35308 14.0176 8.34323 14.0389C7.56856 14.65 6.59825 15.0095 5.54465 15.0095C5.35561 15.0095 5.18111 15.0028 5 14.9815C5.9994 15.6272 7.18519 16 8.4622 16C12.6079 16 14.8763 12.5411 14.8763 9.53891C14.8763 9.44039 14.8763 9.34187 14.8697 9.24335C15.3086 8.91983 15.6933 8.51909 16 8.06909Z" fill="#0B120B"/>
</svg>
